<?xml version="1.0" standalone="no"?>
<!DOCTYPE svg PUBLIC "-//W3C//DTD SVG 20010904//EN"
 "http://www.w3.org/TR/2001/REC-SVG-20010904/DTD/svg10.dtd">
<svg version="1.0" xmlns="http://www.w3.org/2000/svg"
 width="200.000000pt" height="200.000000pt" viewBox="0 0 200.000000 200.000000"
 preserveAspectRatio="xMidYMid meet">

<g transform="translate(0.000000,200.000000) scale(0.100000,-0.100000)"
fill="#000000" stroke="none">
<path d="M960 1878 c-19 -12 -96 -56 -170 -98 -74 -43 -162 -93 -195 -112 -69
-41 -235 -136 -315 -182 l-55 -32 -2 -454 -3 -455 138 -79 c75 -43 180 -104
232 -134 52 -30 113 -65 135 -77 22 -12 91 -52 153 -89 62 -36 118 -66 124
-66 11 0 121 62 423 238 33 19 123 71 200 114 77 44 145 84 152 90 10 8 13
110 13 458 l0 447 -121 72 -120 72 -47 -27 c-26 -15 -75 -43 -109 -62 -35 -20
-63 -39 -63 -44 0 -4 21 -19 48 -33 26 -14 76 -42 112 -63 l65 -38 3 -321 2
-320 -207 -119 c-113 -66 -239 -138 -279 -160 l-72 -42 -173 101 c-96 55 -219
126 -274 158 l-100 58 -2 323 -3 323 128 73 c70 40 141 80 157 89 17 10 52 31
79 48 28 16 66 39 87 50 187 103 318 182 316 189 -2 5 -34 27 -72 49 -162 92
-138 85 -185 55z"/>
<path d="M975 1263 c-17 -9 -72 -40 -122 -70 l-93 -55 0 -138 0 -138 53 -30
c28 -16 81 -45 115 -65 35 -21 69 -37 75 -37 7 0 48 21 92 47 44 25 97 55 118
66 l37 19 0 138 0 137 -82 48 c-171 100 -160 95 -193 78z"/>
</g>
</svg>
